
        <svg xmlns="http://www.w3.org/2000/svg" xmlns:xlink="http://www.w3.org/1999/xlink" version="1.1" width="3164.8351648351645" 
        height="936.2637362637362" viewBox="0 0 3164.8351648351645 936.2637362637362">
			
			<g transform="scale(8.241758241758241) translate(10, 10)">
				<defs id="SvgjsDefs1084"><linearGradient id="SvgjsLinearGradient1089"><stop id="SvgjsStop1090" stop-color="#8f5e25" offset="0"></stop><stop id="SvgjsStop1091" stop-color="#fbf4a1" offset="0.5"></stop><stop id="SvgjsStop1092" stop-color="#8f5e25" offset="1"></stop></linearGradient><linearGradient id="SvgjsLinearGradient1093"><stop id="SvgjsStop1094" stop-color="#8f5e25" offset="0"></stop><stop id="SvgjsStop1095" stop-color="#fbf4a1" offset="0.5"></stop><stop id="SvgjsStop1096" stop-color="#8f5e25" offset="1"></stop></linearGradient></defs><g id="SvgjsG1085" featureKey="symbolFeature-0" transform="matrix(0.9361124146225445,0,0,0.9361124146225445,0,0)" fill="url(#SvgjsLinearGradient1089)"><g xmlns="http://www.w3.org/2000/svg"><path fill-rule="evenodd" clip-rule="evenodd" d="M47.102,0c1.928,0,3.856,0,5.784,0c8.338,0.642,15.042,2.917,20.99,5.95   c-9.545,9.958-19.296,19.708-29.253,29.252c-2.969-3.846-6.214-6.932-13.221-6.279c-6.848,0.638-12.008,6.789-12.065,13.552   c-0.093,11.1,12.636,17.426,21.981,11.239c2.455-1.625,4.708-4.378,6.941-6.611c6.658-6.659,13.369-13.473,19.997-20.164   c5.471,4.927,10.706,10.542,16.196,16.032c0.574,0.574,2.305,1.916,2.314,2.148c0.021,0.503-3.571,3.738-3.967,4.132   c-4.035,4.035-8.129,8.161-12.23,11.9c-2.845-5.982-12.565-8.104-18.84-4.297c-3.834,2.326-6.286,6.06-6.446,11.238   c-0.221,7.125,4.855,13.32,11.9,14.047c9.767,1.009,13.735-5.969,18.51-10.742c8.042-8.042,16.394-16.425,24.295-23.963   c0.308,16.392-5.383,28.214-13.388,36.524c-8.017,8.322-18.679,14.98-33.715,16.03c-1.928,0-3.855,0-5.784,0   c-14.023-1.231-24.828-6.812-32.558-14.543C6.814,77.715,1.225,66.916,0,52.887c0-1.929,0-3.857,0-5.785   C0.812,33.583,7.182,22,14.709,14.544C22.682,6.645,33.328,1.089,47.102,0z"></path></g></g><g id="SvgjsG1086" featureKey="nameFeature-0" transform="matrix(1.5667765341935302,0,0,1.5667765341935302,110.93992861748562,16.041212563015563)" fill="url(#SvgjsLinearGradient1093)"><path d="M30.703 38.5937 l7.0313 0 l-13.594 -37.266 l-7.1094 0 l7.8906 22.266 z M1.9531 38.5937 l6.875 0 l8.125 -19.844 l-3.3594 -8.9063 z M73.813 27.344 c-0.98961 2.3959 -2.3438 4.375 -4.0625 5.9375 c-1.7709 1.6666 -3.8542 2.9688 -6.2501 3.9063 s-5.0781 1.4063 -8.0469 1.4063 l-8.6719 0 l0 -5.9375 l8.5938 0 c1.9791 0 3.776 -0.3125 5.3906 -0.9375 c1.5625 -0.625 2.9166 -1.5104 4.0625 -2.6563 s2.0313 -2.5 2.6563 -4.0625 s0.9375 -3.2813 0.9375 -5.1563 c0 -1.8229 -0.3125 -3.5156 -0.9375 -5.0781 c-0.625 -1.6146 -1.5104 -2.9427 -2.6563 -3.9844 c-1.0416 -1.0938 -2.3958 -1.9791 -4.0624 -2.6563 c-1.6666 -0.625 -3.4635 -0.9375 -5.3906 -0.9375 l-8.5938 0 l0 -5.9375 l8.6719 0 c2.7604 0 5.4166 0.49477 7.9688 1.4844 c2.3959 0.88539 4.5052 2.2135 6.3281 3.9844 c1.7709 1.6146 3.125 3.5938 4.0625 5.9375 c0.98961 2.3959 1.4844 4.8438 1.4844 7.3438 c0 2.7084 -0.49477 5.1563 -1.4844 7.3438 z M112.703 38.5937 l7.0313 0 l-13.594 -37.266 l-7.1094 0 l7.8906 22.266 z M83.9531 38.5937 l6.875 0 l8.125 -19.844 l-3.3594 -8.9063 z M154.953 38.5937 l6.5625 0 l0 -27.422 l-6.5625 9.6094 l0 17.813 z M161.516 1.4059999999999988 l-7.0313 0 l-11.484 17.813 l-11.406 -17.813 l-7.0313 0 l0 37.188 l6.5625 0 l0 -26.406 l11.719 17.578 l0.23438 0 l10.234 -15.156 c0.052109 -0.20836 2.7865 -4.6094 8.2031 -13.203 z"></path></g>
			</g>
		</svg>
	